<svg viewBox="0 0 24 24" fill="none" xmlns="http://www.w3.org/2000/svg"><path fill-rule="evenodd" clip-rule="evenodd" d="M15.145 19.7h-6a1.7 1.7 0 01-1.7-1.7v-2.197h9.4V18a1.7 1.7 0 01-1.7 1.7zm3-4.597V18a3 3 0 01-3 3h-6a3 3 0 01-3-3V6.064a3 3 0 013-3h6a3 3 0 013 3v9.039zm-5.892-3.68c-.131.311-.504.421-.808.27-.338-.167-.453-.588-.325-.943a3.483 3.483 0 00.011-2.339c-.124-.353-.007-.77.33-.936.305-.152.68-.04.81.276.23.56.355 1.172.355 1.814 0 .659-.133 1.286-.373 1.857zm1.477 1.403c.31.154.69.037.831-.28.405-.911.63-1.92.63-2.98 0-1.046-.219-2.04-.612-2.941-.14-.32-.521-.438-.833-.283-.33.163-.455.57-.314.91.295.713.458 1.494.458 2.313 0 .832-.168 1.625-.471 2.347-.144.341-.021.75.31.914zm-4.27-2.592a.65.65 0 100-1.3.65.65 0 000 1.3zm-.407 7.52a.65.65 0 01.65-.65h5.094a.65.65 0 010 1.3H9.703a.65.65 0 01-.65-.65z" fill="#717681"/></svg>