<svg viewBox="0 0 24 24" fill="none" xmlns="http://www.w3.org/2000/svg"><path fill-rule="evenodd" clip-rule="evenodd" d="M12.004 3.012c-2.531 0-4.627 1.753-4.985 4.038-.06.382.259.697.645.697h8.679c.387 0 .706-.315.646-.697-.36-2.285-2.454-4.038-4.985-4.038zm0 1.3c1.605 0 2.913.913 3.46 2.135H8.543c.547-1.222 1.856-2.135 3.46-2.135z" fill="#717681"/><path fill-rule="evenodd" clip-rule="evenodd" d="M4.03 7.453a.65.65 0 00-.783 1.037l2.234 1.685.02.014v2.8H2.648a.65.65 0 100 1.3H5.5v.04c0 .967.193 1.888.542 2.721L4.14 18.952a.65.65 0 00.92.92l1.626-1.628c1.177 1.742 3.118 2.88 5.313 2.88 2.15 0 4.055-1.09 5.238-2.772l1.519 1.52a.65.65 0 00.92-.92l-1.775-1.774a7.031 7.031 0 00.598-2.85v-.04h2.844a.65.65 0 100-1.3H18.5v-2.804l.01-.009 2.235-1.684a.65.65 0 10-.783-1.038l-2.115 1.594a.707.707 0 00-.047-.001H6.2c-.018 0-.036 0-.054.002L4.03 7.453zm13.17 6.875c0 2.85-2.025 5.117-4.55 5.453v-9.435h4.55v3.982zm-10.4 0c0 2.85 2.026 5.117 4.55 5.453v-9.435H6.8v3.982z" fill="#717681"/></svg>