<svg viewBox="0 0 24 24" fill="none" xmlns="http://www.w3.org/2000/svg"><path d="M7.021 7.055c.359-2.285 2.454-4.038 4.985-4.038s4.626 1.753 4.985 4.038c.06.382-.259.697-.646.697H7.667c-.387 0-.706-.315-.646-.697zM3.122 7.585a.65.65 0 01.91-.128l2.116 1.596a.707.707 0 01.055-.002h4.45a.7.7 0 01.7.7v10.568c0 .415-.362.742-.766.648-1.602-.372-2.981-1.362-3.897-2.718l-1.627 1.627a.65.65 0 01-.92-.92l1.902-1.901a7.038 7.038 0 01-.542-2.722v-.04H2.65a.65.65 0 110-1.3h2.853v-2.8a.619.619 0 01-.02-.013L3.25 8.495a.65.65 0 01-.128-.91zM21.347 14.293h-2.845v.04a7.03 7.03 0 01-.597 2.85l1.774 1.774a.65.65 0 01-.92.919l-1.518-1.519c-.916 1.3-2.264 2.248-3.823 2.61-.404.094-.765-.233-.765-.648V9.75a.7.7 0 01.7-.7h4.449a.71.71 0 01.048.001l2.114-1.594a.65.65 0 01.783 1.038l-2.234 1.684-.011.008v2.805h2.845a.65.65 0 110 1.3z" fill="#717681"/></svg>