<svg viewBox="0 0 24 24" fill="none" xmlns="http://www.w3.org/2000/svg"><path fill-rule="evenodd" clip-rule="evenodd" d="M5.013 2.124a.65.65 0 01.911.119l4.434 5.763h2.522a3.444 3.444 0 003.404-2.918 1.279 1.279 0 011.264-1.084H18.7a1.3 1.3 0 011.3 1.3v15.233l.329.428a.65.65 0 11-1.03.792L4.893 3.035a.65.65 0 01.119-.911zM18.7 18.848V5.304h-1.134a4.744 4.744 0 01-4.685 4.002h-1.522l7.34 9.542zM6.981 8.006a.2.2 0 01.158.078l.57.739a.3.3 0 01-.239.483h-.489a1.7 1.7 0 00-1.7 1.7v2a1.7 1.7 0 001.7 1.7h5.057a.4.4 0 01.317.157l.675.877c.083.107-.004.267-.14.267h-1.12v2.7a2.293 2.293 0 01-4.546.426l-.596-3.147a3 3 0 01-2.647-2.98v-2a3 3 0 013-3zm1.52 10.886l-.544-2.877h2.513v2.692a.993.993 0 01-1.969.184z" fill="#717681"/><path d="M7.02 12c0-.55.448-1 1-1s1 .45 1 1-.448 1-1 1-1-.45-1-1z" fill="#717681"/></svg>