<svg viewBox="0 0 24 24" fill="none" xmlns="http://www.w3.org/2000/svg"><path fill-rule="evenodd" clip-rule="evenodd" d="M2 5a3 3 0 013-3h14a3 3 0 013 3v14a3 3 0 01-3 3H5a3 3 0 01-3-3V5zm14.154 15.057a.65.65 0 01.03-.919l1.59-1.488h-6.122A3.65 3.65 0 018.002 14v-1.343H4.654a.65.65 0 110-1.3h3.348V10a3.65 3.65 0 013.65-3.65h.383a.65.65 0 110 1.3h-.383A2.35 2.35 0 009.302 10v4a2.35 2.35 0 002.35 2.35h6.075l-1.547-1.475a.65.65 0 11.897-.94l2.753 2.623a.648.648 0 01-.004.953l-2.753 2.576a.65.65 0 01-.92-.03zm.842-16.06a.65.65 0 01.65.65v1.712h1.712a.65.65 0 010 1.3h-1.712V9.37a.65.65 0 11-1.3 0V7.66h-1.712a.65.65 0 110-1.3h1.712V4.646a.65.65 0 01.65-.65z" fill="#717681"/></svg>