<svg viewBox="0 0 24 24" fill="none" xmlns="http://www.w3.org/2000/svg"><path d="M18.654 3.638a.65.65 0 10-1.3 0V5.35h-1.711a.65.65 0 100 1.3h1.712v1.712a.65.65 0 101.3 0V6.65h1.711a.65.65 0 100-1.3h-1.712V3.638zM10.322 9.004a2.35 2.35 0 012.35-2.35h.425a.65.65 0 100-1.3h-.425a3.65 3.65 0 00-3.65 3.65v2.353H3.644a.65.65 0 100 1.3h5.378v2.354a3.65 3.65 0 003.65 3.65h6.025l-1.549 1.449a.65.65 0 10.889.949l3.26-3.05-3.256-3.103a.65.65 0 10-.897.94l1.588 1.514h-6.06a2.35 2.35 0 01-2.35-2.35V9.004z" fill="#717681"/></svg>