<svg viewBox="0 0 24 24" fill="none" xmlns="http://www.w3.org/2000/svg"><path fill-rule="evenodd" clip-rule="evenodd" d="M11.999 3a9 9 0 10-.005 18 9 9 0 00.008-18H12zM8.556 5.111a7.7 7.7 0 00-4.256 6.86l4.7.017a3.001 3.001 0 011.659-2.672L8.556 5.111zm4.786 4.205a3.001 3.001 0 011.66 2.674l4.698-.018a7.7 7.7 0 00-4.256-6.86l-2.102 4.204zm.468 5.08c-.503.38-1.13.606-1.809.606-.68 0-1.307-.226-1.81-.607l-2.834 3.748A7.666 7.666 0 0012 19.7c1.743 0 3.352-.58 4.642-1.556l-2.832-3.748zM13.702 12a1.701 1.701 0 11-3.402 0 1.701 1.701 0 013.402 0z" fill="#717681"/></svg>