<svg viewBox="0 0 24 24" fill="none" xmlns="http://www.w3.org/2000/svg"><path d="M13.653 9.349a.65.65 0 01.65.65v2.35h2.35a.65.65 0 110 1.3h-2.35v2.35a.65.65 0 11-1.3 0v-2.35h-2.35a.65.65 0 110-1.3h2.35v-2.35a.65.65 0 01.65-.65z" fill="#717681"/><path fill-rule="evenodd" clip-rule="evenodd" d="M17.982 5.019a3 3 0 00-2.981-2.669H7a3 3 0 00-3 3v10.656A3 3 0 006.82 19a3.001 3.001 0 002.829 2.002h8a3 3 0 003-3v-10a3 3 0 00-2.668-2.983zm-1.317-.017H9.65a3 3 0 00-3 3v9.664a1.693 1.693 0 01-.147-.038.64.64 0 00-.054-.014A1.7 1.7 0 015.3 16.006V5.35A1.7 1.7 0 017 3.65h8a1.7 1.7 0 011.665 1.352zm-7.015 14.7h8a1.7 1.7 0 001.7-1.7v-10a1.7 1.7 0 00-1.7-1.7h-8a1.7 1.7 0 00-1.7 1.7v10a1.7 1.7 0 001.7 1.7z" fill="#717681"/></svg>