<svg viewBox="0 0 24 24" fill="none" xmlns="http://www.w3.org/2000/svg"><path fill-rule="evenodd" clip-rule="evenodd" d="M15 2.35a3 3 0 012.982 2.669 3 3 0 012.668 2.983v10a3 3 0 01-3 3h-8A3.001 3.001 0 016.82 19 3 3 0 014 16.006V5.35a3 3 0 013-3h8zM9.65 5.002h7.015A1.7 1.7 0 0015 3.65H7a1.7 1.7 0 00-1.7 1.7v10.656a1.7 1.7 0 001.148 1.608.64.64 0 01.054.014c.048.015.097.027.147.038V8.002a3 3 0 013-3zm4.653 4.997a.65.65 0 10-1.3 0v2.35h-2.35a.65.65 0 100 1.3h2.35v2.35a.65.65 0 101.3 0v-2.35h2.35a.65.65 0 100-1.3h-2.35v-2.35z" fill="#717681"/></svg>