<svg viewBox="0 0 24 24" fill="none" xmlns="http://www.w3.org/2000/svg"><path d="M10.524 2a1.5 1.5 0 00-1.5 1.5v1a1.5 1.5 0 003 0v-1a1.5 1.5 0 00-1.5-1.5zM10.374 17.5H9.068v3.851a.65.65 0 11-1.3 0V17.5H6.87a.7.7 0 01-.688-.831l.869-4.559c.403.762 1.012 1.504 1.844 2.19a.65.65 0 00.827-1.004c-1.31-1.08-1.869-2.221-1.96-3.22-.085-.947.244-1.835.872-2.52A2.73 2.73 0 0110.288 7c.9 0 1.656.424 2.22 1.04l1.754 1.743a2.35 2.35 0 001.613.642h1.496a.65.65 0 01.195 1.27c.59.383.981 1.049.981 1.805v7.851a.65.65 0 11-1.3 0V13.5a.85.85 0 10-1.7 0v1.098a.65.65 0 11-1.3 0V13.5c0-.771.406-1.447 1.016-1.827a3.65 3.65 0 01-1.894-.945l-.345-.325V16.8a.7.7 0 01-.7.7h-.65v3.851a.65.65 0 11-1.3 0V17.5z" fill="#717681"/></svg>