<svg viewBox="0 0 24 24" fill="none" xmlns="http://www.w3.org/2000/svg"><path fill-rule="evenodd" clip-rule="evenodd" d="M15.997 4.719l3.237 3.237a1.7 1.7 0 010 2.404l-3.682 3.682L9.912 8.4l3.68-3.682a1.7 1.7 0 012.405 0zM8.992 9.32L4.8 13.511a1.7 1.7 0 000 2.404l3.236 3.237c.3.3.683.464 1.074.493h.256c.392-.03.775-.194 1.074-.493l4.192-4.191-5.641-5.64zm2.795 10.325l8.366-8.366a3 3 0 000-4.243L16.916 3.8a3 3 0 00-4.242 0L3.88 12.592a3 3 0 000 4.243l3.237 3.236a2.989 2.989 0 002.291.874h7.011a.65.65 0 000-1.3h-4.633z" fill="#717681"/></svg>