<svg viewBox="0 0 24 24" fill="none" xmlns="http://www.w3.org/2000/svg"><path fill-rule="evenodd" clip-rule="evenodd" d="M6.668 6.35a3 3 0 013-3h7.982a3 3 0 013 3v10.015a3 3 0 01-3 3H9.668a3 3 0 01-3-3V6.35zm4.33 3.222c-.14-.089-.414-.129-.673-.033a.65.65 0 01-.45-1.22c.579-.213 1.287-.183 1.82.156.278.177.515.445.63.805.115.357.09.745-.047 1.13-.121.345-.271.764-.43 1.196l.86-.653a.65.65 0 01.817.025l.696.599a4.4 4.4 0 01.275-.463c.328-.475.836-.936 1.66-1a2.02 2.02 0 011.705.67 2.38 2.38 0 01.444.721l.007.02.002.006.001.003v.002l-.592.2.593-.2a.65.65 0 01-1.23.422l-.004-.01a1.085 1.085 0 00-.186-.292.723.723 0 00-.64-.246c-.31.024-.504.172-.69.442-.1.144-.187.311-.282.503l-.045.093a6.53 6.53 0 01-.26.496.65.65 0 01-.98.156l-.923-.794-2.286 1.738a.65.65 0 01-.983-.79c.296-.64.881-2.243 1.245-3.276.063-.177.046-.269.035-.302-.01-.032-.032-.067-.09-.104zm-5.635-.22a.65.65 0 00-1.3 0v9.461a3.15 3.15 0 003.15 3.15h8.443a.65.65 0 100-1.3H7.213a1.85 1.85 0 01-1.85-1.85v-9.46z" fill="#717681"/></svg>