<svg viewBox="0 0 24 24" fill="none" xmlns="http://www.w3.org/2000/svg"><path fill-rule="evenodd" clip-rule="evenodd" d="M5 6v5a3 3 0 00-3 3v4a3 3 0 003 3h14a3 3 0 003-3v-4a3 3 0 00-3-3V9.18a3 3 0 00-.803-2.044l-2.958-3.18A3 3 0 0013.041 3H8a3 3 0 00-3 3zm3-1.7h5.042c.104 0 .207.01.308.028V7.05A1.95 1.95 0 0015.3 9h2.39c.007.06.01.12.01.18V11H6.3V6A1.7 1.7 0 018 4.3zm8.945 3.4L14.65 5.232v1.816c0 .36.29.65.65.65h1.645zm-4.442 5.88a.65.65 0 110 1.3h-.86a.209.209 0 00-.072.405l.753.28a1.473 1.473 0 01-.514 2.855h-1.026a.65.65 0 110-1.3h1.026a.173.173 0 00.06-.336l-.752-.28a1.509 1.509 0 01.525-2.924h.86zm-5.277 3.526a.65.65 0 01-.65-.65v-.917a.65.65 0 01.65-.65h.692a.65.65 0 100-1.3h-.692a1.95 1.95 0 00-1.95 1.95v.917a1.95 1.95 0 001.95 1.95h.692a.65.65 0 100-1.3h-.692zm7.679-3.477a.65.65 0 01.849.353l.86 2.084.86-2.084a.65.65 0 111.201.496l-1.458 3.533a.652.652 0 01-1.094.185.647.647 0 01-.113-.185l-1.458-3.533a.65.65 0 01.353-.849z" fill="#717681"/></svg>