<svg viewBox="0 0 24 24" fill="none" xmlns="http://www.w3.org/2000/svg"><path d="M13.351 14.233a.65.65 0 00-.65-.65h-.86a1.509 1.509 0 00-.525 2.923l.753.28a.173.173 0 01-.06.336h-1.027a.65.65 0 100 1.3h1.026a1.473 1.473 0 00.514-2.854l-.754-.28a.209.209 0 01.073-.405h.86a.65.65 0 00.65-.65zM6.774 16.459c0 .359.29.65.65.65h.692a.65.65 0 110 1.3h-.692a1.95 1.95 0 01-1.95-1.95v-.918a1.95 1.95 0 011.95-1.95h.692a.65.65 0 110 1.3h-.692a.65.65 0 00-.65.65v.918zM15.952 13.985a.65.65 0 00-1.202.496l1.458 3.533a.666.666 0 00.113.185.648.648 0 001.094-.186l1.458-3.532a.65.65 0 00-1.202-.496l-.86 2.083-.86-2.083z" fill="#717681"/><path fill-rule="evenodd" clip-rule="evenodd" d="M5 11V6a3 3 0 013-3h5.042a3 3 0 012.197.957l2.957 3.18A3 3 0 0119 9.18V11a3 3 0 013 3v4a3 3 0 01-3 3H5a3 3 0 01-3-3v-4a3 3 0 013-3zm8.042-6.7H8A1.7 1.7 0 006.3 6v5h11.4V9.18c0-.06-.003-.121-.01-.18H15.3a1.95 1.95 0 01-1.95-1.95V4.327a1.699 1.699 0 00-.308-.028zm1.608.933v1.816c0 .36.29.65.65.65h1.645L14.65 5.233zM5 12.3h14a1.7 1.7 0 011.7 1.7v4a1.7 1.7 0 01-1.7 1.7H5A1.7 1.7 0 013.3 18v-4A1.7 1.7 0 015 12.3z" fill="#717681"/></svg>