<svg viewBox="0 0 24 24" fill="none" xmlns="http://www.w3.org/2000/svg"><path d="M12.92 2.387l8.08 8.08a.65.65 0 01-.85.984l-2.061-2.06L12 3.306l-8.15 8.145a.65.65 0 11-.85-.983l8.081-8.081a1.3 1.3 0 011.838 0z" fill="#717681"/><path fill-rule="evenodd" clip-rule="evenodd" d="M5.549 13.253l1.317-2.612a3 3 0 012.679-1.649h4.91a3 3 0 012.68 1.65l1.294 2.566c.196.268.35.57.449.896.07.233-.118.45-.361.45h-1.532a.65.65 0 100 1.3h1.622c.221 0 .4.179.4.4v3.515a1.231 1.231 0 11-2.462 0v-.776h-.002l-1.163-2.627a3 3 0 00-2.743-1.786H11.38a3 3 0 00-2.744 1.786l-1.162 2.626v.772a1.236 1.236 0 11-2.472 0v-3.51c0-.221.179-.4.4-.4h1.615a.65.65 0 100-1.3H5.493c-.243 0-.432-.217-.36-.45a2.99 2.99 0 01.416-.851zm10.632-1.268a3.114 3.114 0 00-.174-.005H8.003c-.059 0-.117.001-.174.005h-.184l.382-.758a1.7 1.7 0 011.518-.935h4.91a1.7 1.7 0 011.518.935l.383.758h-.175z" fill="#717681"/><path d="M11.38 15.88h1.257a1.7 1.7 0 011.554 1.012l.69 1.537a.4.4 0 01-.364.564H9.55a.4.4 0 01-.369-.554l.644-1.547a1.7 1.7 0 011.555-1.012z" fill="#717681"/></svg>