<svg viewBox="0 0 24 24" fill="none" xmlns="http://www.w3.org/2000/svg"><path d="M7.175 3.696a.65.65 0 01.708-.586l4.69.446a3.65 3.65 0 012.206 1.023l5.537 5.41a.65.65 0 11-.909.93l-5.537-5.41a2.35 2.35 0 00-1.42-.659l-4.69-.445a.65.65 0 01-.585-.709zM7.886 10.683a1 1 0 100-2 1 1 0 000 2z" fill="#717681"/><path fill-rule="evenodd" clip-rule="evenodd" d="M5.04 5.394a1.3 1.3 0 00-1.432 1.433l.723 6.66a3 3 0 00.86 1.798L9.9 19.992a3 3 0 004.243 0l4.064-4.065a3 3 0 000-4.242L13.5 6.977a3 3 0 00-1.798-.86l-6.66-.723zm8.182 13.679l4.065-4.065a1.7 1.7 0 000-2.404L12.58 7.897a1.7 1.7 0 00-1.019-.488l-6.66-.723.722 6.66a1.7 1.7 0 00.488 1.02l4.707 4.707a1.7 1.7 0 002.404 0z" fill="#717681"/></svg>