<svg viewBox="0 0 24 24" fill="none" xmlns="http://www.w3.org/2000/svg"><path d="M7.883 3.11a.65.65 0 00-.123 1.295l4.69.445a2.35 2.35 0 011.42.659l5.537 5.41a.65.65 0 10.909-.93l-5.537-5.41a3.65 3.65 0 00-2.206-1.023l-4.69-.446z" fill="#717681"/><path fill-rule="evenodd" clip-rule="evenodd" d="M3.608 6.827a1.3 1.3 0 011.433-1.433l6.66.722a3 3 0 011.798.861l4.707 4.708a3 3 0 010 4.242l-4.064 4.065a3 3 0 01-4.243 0l-4.707-4.707a3 3 0 01-.861-1.798l-.723-6.66zm5.278 2.856a1 1 0 11-2 0 1 1 0 012 0z" fill="#717681"/></svg>