<svg viewBox="0 0 24 24" fill="none" xmlns="http://www.w3.org/2000/svg"><path d="M12 2a.65.65 0 01.65.65v2.448a.65.65 0 11-1.3 0V2.65A.65.65 0 0112 2z" fill="#717681"/><path fill-rule="evenodd" clip-rule="evenodd" d="M12 17a5 5 0 100-10 5 5 0 000 10zm0-1.3a3.7 3.7 0 100-7.4 3.7 3.7 0 000 7.4z" fill="#717681"/><path d="M11.35 21.35a.65.65 0 101.3 0v-2.448a.65.65 0 10-1.3 0v2.447zM4.93 4.929a.65.65 0 01.919 0l1.73 1.73a.65.65 0 11-.92.92l-1.73-1.73a.65.65 0 010-.92zM18.152 19.071a.65.65 0 00.919-.92l-1.73-1.73a.65.65 0 00-.92.92l1.73 1.73zM2 12a.65.65 0 01.65-.65h2.448a.65.65 0 110 1.3H2.65A.65.65 0 012 12zM21.35 12.65a.65.65 0 000-1.3h-2.448a.65.65 0 100 1.3h2.448zM4.93 19.07a.65.65 0 010-.919l1.73-1.73a.65.65 0 01.919.92l-1.73 1.73a.65.65 0 01-.92 0zM19.071 5.849a.65.65 0 00-.92-.92l-1.73 1.73a.65.65 0 00.92.92l1.73-1.73z" fill="#717681"/></svg>