<svg viewBox="0 0 24 24" fill="none" xmlns="http://www.w3.org/2000/svg"><path d="M17 12a5 5 0 11-10 0 5 5 0 0110 0z" fill="#717681"/><path fill-rule="evenodd" clip-rule="evenodd" d="M12 2a.65.65 0 01.65.65v2.448a.65.65 0 01-1.3 0V2.65A.65.65 0 0112 2zM12 22a.65.65 0 01-.65-.65v-2.448a.65.65 0 111.3 0v2.448A.65.65 0 0112 22zM4.93 4.929a.65.65 0 01.919 0l1.73 1.73a.65.65 0 01-.92.92l-1.73-1.73a.65.65 0 010-.92zM19.07 19.07a.65.65 0 01-.918 0l-1.73-1.73a.65.65 0 11.918-.92l1.73 1.731a.65.65 0 010 .92zM2 12a.65.65 0 01.65-.65h2.448a.65.65 0 110 1.3H2.65A.65.65 0 012 12zM22 12a.65.65 0 01-.65.65h-2.448a.65.65 0 010-1.3h2.448A.65.65 0 0122 12zM4.93 19.07a.65.65 0 010-.918l1.73-1.73a.65.65 0 01.92.918l-1.731 1.73a.65.65 0 01-.92 0zM19.071 4.93a.65.65 0 010 .919l-1.73 1.73a.65.65 0 01-.92-.92l1.73-1.73a.65.65 0 01.92 0z" fill="#717681"/></svg>