<svg viewBox="0 0 24 24" fill="none" xmlns="http://www.w3.org/2000/svg"><path fill-rule="evenodd" clip-rule="evenodd" d="M7.85 10.1a4.15 4.15 0 118.3 0 4.15 4.15 0 01-8.3 0zM12 7.25a2.85 2.85 0 100 5.7 2.85 2.85 0 000-5.7z" fill="#717681"/><path fill-rule="evenodd" clip-rule="evenodd" d="M11.624 3.13c3.272-.198 6.748 1.71 7.265 5.937.036.298.058.575.062.824.018 1.346-.41 2.709-1.022 3.967-.614 1.264-1.433 2.462-2.242 3.491a30.5 30.5 0 01-2.23 2.522c-.333.338-.67.672-1.025.987a.651.651 0 01-.863 0c.044-.05 0 0 0 0a21.982 21.982 0 01-1.025-.987 30.51 30.51 0 01-2.23-2.522c-.809-1.03-1.628-2.227-2.242-3.49-.612-1.26-1.04-2.622-1.021-3.968.06-4.254 3.302-6.564 6.573-6.761zM12 19.483a29.194 29.194 0 01-2.664-2.937c-.775-.985-1.535-2.103-2.096-3.256-.563-1.157-.905-2.312-.89-3.38.048-3.434 2.61-5.317 5.351-5.482 2.739-.166 5.48 1.393 5.896 4.797.033.266.05.495.053.684.015 1.07-.328 2.223-.89 3.38-.561 1.154-1.322 2.272-2.096 3.257A29.175 29.175 0 0112 19.483z" fill="#717681"/></svg>