<svg viewBox="0 0 24 24" fill="none" xmlns="http://www.w3.org/2000/svg"><path fill-rule="evenodd" clip-rule="evenodd" d="M11.624 3.13c3.272-.198 6.748 1.71 7.265 5.937.036.298.058.575.062.824.018 1.346-.41 2.709-1.022 3.967-.614 1.264-1.433 2.462-2.242 3.491a30.5 30.5 0 01-3.177 3.439l-.076.069-.002.001a.651.651 0 01-.863 0 10.22 10.22 0 01-.287-.265 30.51 30.51 0 01-2.967-3.244c-.81-1.03-1.629-2.227-2.243-3.49-.612-1.26-1.04-2.622-1.021-3.968.06-4.254 3.302-6.564 6.573-6.761zM7.85 10.1a4.15 4.15 0 118.3 0 4.15 4.15 0 01-8.3 0z" fill="#717681"/></svg>