<svg viewBox="0 0 24 24" fill="none" xmlns="http://www.w3.org/2000/svg"><path fill-rule="evenodd" clip-rule="evenodd" d="M15.819 18.697l4.705-4.705a1.3 1.3 0 000-1.839l-2.038-2.038a1.3 1.3 0 00-1.839 0l-4.506 4.506a1.99 1.99 0 01-2.815-2.815L13.832 7.3a1.3 1.3 0 000-1.838l-2.076-2.077a1.3 1.3 0 00-1.839 0L5.212 8.09A7.5 7.5 0 1015.82 18.697zm1.32-3.158l-2.24 2.239a6.2 6.2 0 01-8.767-8.769L8.37 6.771l2.077 2.077-2.04 2.04a3.29 3.29 0 104.653 4.653l2.04-2.04 2.038 2.038zm-5.773-7.61L9.29 5.851l1.547-1.548 2.077 2.077-1.547 1.547zm6.692 6.69l1.547-1.546-2.038-2.038-1.547 1.547 2.038 2.038z" fill="#717681"/></svg>