<svg viewBox="0 0 24 24" fill="none" xmlns="http://www.w3.org/2000/svg"><path d="M10.5 3.5a1.5 1.5 0 013 0v1a1.5 1.5 0 11-3 0v-1z" fill="#717681"/><path fill-rule="evenodd" clip-rule="evenodd" d="M8.864 10.263c.109-.238.228-.448.357-.633l.786 5.193v6.545a.65.65 0 001.3 0v-6.173h1.394v6.173a.65.65 0 001.3 0v-6.534l.779-5.194c.126.182.243.39.35.623.462 1.01.697 2.437.697 4.12a.65.65 0 001.3 0c0-1.775-.244-3.411-.815-4.66-.385-.842-.936-1.538-1.675-1.955a2.337 2.337 0 00-.568-.252 3.373 3.373 0 00-.612-.14A9.063 9.063 0 0012 7.273c-.584 0-1.055.038-1.434.1a3.357 3.357 0 00-1.152.363c-.768.414-1.338 1.123-1.732 1.987-.572 1.249-.815 2.885-.815 4.66a.65.65 0 101.3 0c0-1.683.235-3.11.697-4.12zm4.284-1.62A8.154 8.154 0 0012 8.574a8.094 8.094 0 00-1.234.085l-.017.001c-.14.024-.256.05-.35.075l.782 5.161h1.646l.774-5.161a3.5 3.5 0 00-.453-.09z" fill="#717681"/></svg>