<svg viewBox="0 0 24 24" fill="none" xmlns="http://www.w3.org/2000/svg"><path fill-rule="evenodd" clip-rule="evenodd" d="M5.49 2.25a.65.65 0 00-1.03.793l14.398 18.7a.65.65 0 001.03-.791l-3.417-4.44A6.981 6.981 0 0019 11.127a.65.65 0 00-1.3 0c0 1.746-.786 3.31-2.024 4.354l-.864-1.122a4.272 4.272 0 001.473-3.232V6.282A4.287 4.287 0 007.83 5.29L5.49 2.252zm3.524 4.578l5.004 6.498c.595-.545.968-1.329.968-2.2V6.284A2.985 2.985 0 0012 3.3a2.985 2.985 0 00-2.986 2.984v.545z" fill="#717681"/><path d="M8.252 10.089a.3.3 0 00-.538.183v.854A4.285 4.285 0 0012 15.41c.146 0 .221-.166.132-.282l-.786-1.021a.317.317 0 00-.166-.11 2.986 2.986 0 01-2.166-2.87.14.14 0 00-.029-.086l-.733-.952z" fill="#717681"/><path d="M13.438 16.825a.31.31 0 00-.307-.112 5.7 5.7 0 01-6.832-5.586.65.65 0 00-1.3 0 7 7 0 006.352 6.967V20.694h-2.7a.65.65 0 100 1.3h6.7a.65.65 0 100-1.3h-2.7V18.106l-.001-.012c.382-.035.755-.1 1.116-.195a.286.286 0 00.149-.455l-.477-.62z" fill="#717681"/></svg>