<svg viewBox="0 0 24 24" fill="none" xmlns="http://www.w3.org/2000/svg"><path fill-rule="evenodd" clip-rule="evenodd" d="M7.714 6.285a4.285 4.285 0 018.572 0v4.845a4.285 4.285 0 01-8.572 0V6.285zm7.272 0v4.845a2.985 2.985 0 01-5.972 0V6.285a2.986 2.986 0 015.972 0z" fill="#717681"/><path d="M6.299 11.13a.65.65 0 00-1.3 0 7.001 7.001 0 006.352 6.97V20.7h-2.7a.65.65 0 100 1.3h6.7a.65.65 0 100-1.3h-2.7v-2.57a.548.548 0 00-.002-.03 7.001 7.001 0 006.353-6.97.65.65 0 00-1.3 0A5.7 5.7 0 0112 16.83a5.7 5.7 0 01-5.701-5.7z" fill="#717681"/></svg>