<svg viewBox="0 0 24 24" fill="none" xmlns="http://www.w3.org/2000/svg"><path fill-rule="evenodd" clip-rule="evenodd" d="M8.659 10.182a3.363 3.363 0 116.682 0l-.197 1.738a3.164 3.164 0 01-6.288 0l-.197-1.738zM12 7.74a2.063 2.063 0 00-2.05 2.296l.198 1.737a1.864 1.864 0 003.704 0l.198-1.737A2.063 2.063 0 0012 7.74z" fill="#7A7E88"/><path fill-rule="evenodd" clip-rule="evenodd" d="M17.633 19.02A9 9 0 106.377 4.972a9 9 0 0011.251 14.05.237.237 0 00.005-.004zm-1.694-.402A7.664 7.664 0 0112 19.7a7.664 7.664 0 01-3.938-1.082 3.22 3.22 0 012.542-1.243h2.793a3.22 3.22 0 012.542 1.243zm1.056-.758a4.52 4.52 0 00-3.599-1.785h-2.792a4.52 4.52 0 00-3.6 1.785 7.7 7.7 0 119.99 0z" fill="#7A7E88"/></svg>