<svg viewBox="0 0 24 24" fill="none" xmlns="http://www.w3.org/2000/svg"><path fill-rule="evenodd" clip-rule="evenodd" d="M20.312 11.754l-2.11-.004-4.825 4.825.013 2.102c-.127 1.078-1.443 1.535-2.21.767l-2.842-2.842-4.503 4.503a.65.65 0 11-.92-.92l4.503-4.502-2.862-2.863c-.768-.768-.311-2.083.767-2.21l2.102.013 4.825-4.825-.005-2.11c.128-1.079 1.443-1.535 2.21-.767l6.624 6.623c.768.768.311 2.083-.767 2.21zm-8.223 6.76l-6.604-6.603 2.475.015.003-.002 4.113 4.113-.003.003.016 2.474zm.535-11.252l-3.742 3.742 4.113 4.114 3.743-3.742-4.114-4.114zm.92-.92l.007-.007-.005-2.486 6.604 6.605-2.485-.005-.008.007-4.114-4.113z" fill="#717681"/></svg>