<svg viewBox="0 0 24 24" fill="none" xmlns="http://www.w3.org/2000/svg"><path d="M8.945 10.475c.072-.62.259-1.215.545-1.758a5.183 5.183 0 001.471 4.204l1.505 1.52a.65.65 0 00.923-.915l-1.504-1.52c-1.266-1.279-1.448-3.309-.51-4.83A.378.378 0 0111.698 7h.738a1.3 1.3 0 01.983.45l.275.317a2.3 2.3 0 01.102 2.882l-.038.051a.284.284 0 00.105.427 4.07 4.07 0 011.695 5.826l-.565.906a.3.3 0 01-.255.141h-.872v3.35a.65.65 0 11-1.3 0V18h-1.295v3.35a.65.65 0 11-1.3 0V18h-1.85a.3.3 0 01-.296-.347l1.061-6.676.058-.502zM12.952 5.524C12.026 6.702 9.335 6.73 8.55 4.339c-.06-.182.084-.36.274-.387.735-.104 1.123-.517 1.593-1.019a10.973 10.973 0 01.588-.59A1.42 1.42 0 0111.928 2c.895 0 1.59.844 1.49 1.807l-.088.838a1.58 1.58 0 01-.378.879z" fill="#717681"/></svg>