<svg viewBox="0 0 24 24" fill="none" xmlns="http://www.w3.org/2000/svg"><path fill-rule="evenodd" clip-rule="evenodd" d="M8 3a3 3 0 00-3 3v13.376a1.643 1.643 0 002.542 1.375l1.5-.982a.7.7 0 01.807.028l1.127.853a1.7 1.7 0 002.045.004.522.522 0 00.155-.627 5.642 5.642 0 015.183-7.874c.342 0 .641-.264.641-.607V6a3 3 0 00-3-3H8zm.669 3.993a.65.65 0 000 1.3h6.7a.65.65 0 000-1.3h-6.7zm-.65 3.65a.65.65 0 01.65-.65h6.7a.65.65 0 010 1.3h-6.7a.65.65 0 01-.65-.65zm.65 2.348a.65.65 0 100 1.3h3.207a.65.65 0 100-1.3H8.669z" fill="#717681"/><path d="M18.615 14.136l1.105 1.835 2.086.483a.3.3 0 01.159.489l-1.404 1.617.185 2.134a.3.3 0 01-.416.302l-1.972-.835-1.972.835a.3.3 0 01-.416-.302l.185-2.134-1.403-1.617a.3.3 0 01.158-.49l2.087-.482 1.104-1.835a.3.3 0 01.514 0z" fill="#717681"/></svg>