<svg viewBox="0 0 24 24" fill="none" xmlns="http://www.w3.org/2000/svg"><path fill-rule="evenodd" clip-rule="evenodd" d="M5 6a3 3 0 013-3h8a3 3 0 013 3v4.986c0 .461-.44.795-.898.747a5.8 5.8 0 00-5.796 8.387c.196.386.055.891-.378.873a1.697 1.697 0 01-.953-.343l-1.126-.853a.7.7 0 00-.806-.028l-1.5.982A1.643 1.643 0 015 19.376V6zm3.019 1.643a.65.65 0 01.65-.65h6.7a.65.65 0 010 1.3h-6.7a.65.65 0 01-.65-.65zm.65 2.367a.65.65 0 000 1.3h3.207a.65.65 0 100-1.3H8.669z" fill="#717681"/><path fill-rule="evenodd" clip-rule="evenodd" d="M20.664 20.682a4.5 4.5 0 10-6.365-6.364 4.5 4.5 0 006.365 6.364zm-2.51-3.153a.65.65 0 10-1.3 0v2.47a.65.65 0 101.3 0v-2.47zm0-2.58a.65.65 0 11-1.3 0 .65.65 0 011.3 0z" fill="#717681"/></svg>