<svg viewBox="0 0 24 24" fill="none" xmlns="http://www.w3.org/2000/svg"><path d="M10.222 18.463a1.3 1.3 0 00-1.497-.052l-1.913 1.252a.343.343 0 01-.53-.287V6a1.7 1.7 0 011.7-1.7h8a1.7 1.7 0 011.7 1.7v3.992a.65.65 0 001.3 0V6a3 3 0 00-3-3h-8a3 3 0 00-3 3v13.376a1.643 1.643 0 002.542 1.375l1.525-.998a.665.665 0 01.762.029c.428.324 1.052.026 1.052-.51a.65.65 0 00-.258-.519l-.383-.29z" fill="#717681"/><path d="M8.668 6.993a.65.65 0 000 1.3h6.7a.65.65 0 100-1.3h-6.7zM8.668 9.992a.65.65 0 000 1.3h3.207a.65.65 0 100-1.3H8.668zM17.641 17.837a.65.65 0 10-1.3 0v.933a.65.65 0 101.3 0v-.933zM17.641 15.238a.65.65 0 11-1.3 0 .65.65 0 011.3 0z" fill="#717681"/><path fill-rule="evenodd" clip-rule="evenodd" d="M20.52 13.482a4.99 4.99 0 10-7.057 7.056 4.99 4.99 0 007.057-7.056zm-6.138.919a3.69 3.69 0 115.218 5.218 3.69 3.69 0 01-5.218-5.218z" fill="#717681"/></svg>