<svg viewBox="0 0 24 24" fill="none" xmlns="http://www.w3.org/2000/svg"><path d="M10.24 18.463a1.3 1.3 0 00-1.496-.052L6.83 19.663a.343.343 0 01-.53-.287V6A1.7 1.7 0 018 4.3h8A1.7 1.7 0 0117.7 6v6.046a.65.65 0 101.3 0V6a3 3 0 00-3-3H8a3 3 0 00-3 3v13.376a1.643 1.643 0 002.542 1.375l1.914-1.252 1.52 1.15a1.7 1.7 0 002.045.005l.948-.71a.65.65 0 00-.78-1.04l-.947.71a.4.4 0 01-.482 0l-1.52-1.151z" fill="#717681"/><path d="M8.019 7.643a.65.65 0 01.65-.65h6.7a.65.65 0 010 1.3h-6.7a.65.65 0 01-.65-.65zM8.019 10.642a.65.65 0 01.65-.65h6.7a.65.65 0 010 1.3h-6.7a.65.65 0 01-.65-.65zM8.669 12.991a.65.65 0 100 1.3h3.207a.65.65 0 100-1.3H8.669z" fill="#717681"/><path fill-rule="evenodd" clip-rule="evenodd" d="M19.72 15.97l-1.105-1.834a.3.3 0 00-.514 0l-1.105 1.835-2.086.483a.3.3 0 00-.159.489l1.404 1.617-.185 2.134a.3.3 0 00.416.302l1.972-.835 1.972.835a.3.3 0 00.416-.302l-.185-2.134 1.404-1.617a.3.3 0 00-.16-.489l-2.086-.483zm-.83 1.143l1.003.233-.675.778.089 1.027-.95-.402-.948.402.089-1.027-.676-.778 1.004-.233.532-.883.531.883z" fill="#717681"/></svg>