<svg viewBox="0 0 25 24" fill="none" xmlns="http://www.w3.org/2000/svg"><path fill-rule="evenodd" clip-rule="evenodd" d="M13.826 4.3H7.331a1.7 1.7 0 00-1.7 1.7v5.35h13.4V9.297c0-.1-.009-.2-.026-.298h-2.721a1.95 1.95 0 01-1.95-1.95V4.378a1.699 1.699 0 00-.508-.078zM4.331 6v5.35h-1a.65.65 0 100 1.3h18a.65.65 0 000-1.3h-1V9.297a3 3 0 00-.944-2.185l-3.505-3.297A3 3 0 0013.826 3H7.331a3 3 0 00-3 3zm11.303-.633l2.48 2.332h-1.83a.65.65 0 01-.65-.65V5.367zM4.33 14.594a.65.65 0 011.3 0V18a1.7 1.7 0 001.7 1.7h5.12a.65.65 0 110 1.3h-5.12a3 3 0 01-3-3v-3.406zm11.295 2.225a.628.628 0 00-.008 1.255c1.641.01 3.426.001 3.426.001l-1.548 1.405a.633.633 0 00-.07.883.62.62 0 00.454.219c.154.005.3-.038.429-.149l2.693-2.383a.671.671 0 00.036-1l-2.528-2.455a.633.633 0 00-.886.007.624.624 0 00.007.886l1.45 1.337-3.455-.006z" fill="#717681"/></svg>