<svg viewBox="0 0 24 24" fill="none" xmlns="http://www.w3.org/2000/svg"><path fill-rule="evenodd" clip-rule="evenodd" d="M13.495 4.3H7A1.7 1.7 0 005.3 6v5.35h13.4V9.297c0-.1-.009-.2-.026-.298h-2.721a1.95 1.95 0 01-1.95-1.95V4.378a1.7 1.7 0 00-.508-.078zM4 6v5.35H2.61a.65.65 0 100 1.3h18.78a.65.65 0 100-1.3H20V9.297a3 3 0 00-.945-2.185L15.55 3.815A3 3 0 0013.495 3H7a3 3 0 00-3 3zm11.303-.633l2.48 2.332h-1.83a.65.65 0 01-.65-.65V5.367zM4 14.594a.65.65 0 011.3 0V18A1.7 1.7 0 007 19.7h5.12a.65.65 0 010 1.3H7a3 3 0 01-3-3v-3.406zm14.106 7.056a3.853 3.853 0 01-3.814-3.307l-.408.415a.65.65 0 01-.927-.911l1.55-1.578a.65.65 0 01.92-.008l1.577 1.55a.65.65 0 01-.91.927l-.501-.492a2.553 2.553 0 101.675-2.86.65.65 0 11-.426-1.229 3.852 3.852 0 111.264 7.493z" fill="#717681"/></svg>