<svg viewBox="0 0 24 24" fill="none" xmlns="http://www.w3.org/2000/svg"><path d="M9.65 7.65a.65.65 0 10-1.3 0v1.994a2.157 2.157 0 00.007.156 4.337 4.337 0 00.436 1.615c.226.453.576.924 1.112 1.282.54.36 1.231.578 2.095.578.864 0 1.555-.218 2.095-.578.536-.358.885-.83 1.111-1.282a4.337 4.337 0 00.444-1.771V7.65a.65.65 0 10-1.3 0v1.987l-.005.07a3.038 3.038 0 01-.302 1.127 1.985 1.985 0 01-.67.781c-.303.203-.737.36-1.373.36s-1.07-.157-1.374-.36a1.985 1.985 0 01-.67-.781 3.037 3.037 0 01-.306-1.197V7.65z" fill="#717681"/><path fill-rule="evenodd" clip-rule="evenodd" d="M16.474 4H7.525A2.6 2.6 0 004.93 6.432l-.83 10.8A2.6 2.6 0 006.693 20h10.612a2.6 2.6 0 002.594-2.768l-.831-10.8A2.6 2.6 0 0016.474 4zm0 1.3H7.525a1.3 1.3 0 00-1.297 1.216l-.831 10.8A1.3 1.3 0 006.694 18.7h10.612a1.3 1.3 0 001.297-1.384l-.831-10.8A1.3 1.3 0 0016.474 5.3z" fill="#717681"/></svg>