<svg viewBox="0 0 24 24" fill="none" xmlns="http://www.w3.org/2000/svg"><path fill-rule="evenodd" clip-rule="evenodd" d="M7.526 4h8.949a2.6 2.6 0 012.594 2.432l.832 10.8A2.6 2.6 0 0117.306 20H6.694A2.6 2.6 0 014.1 17.232l.831-10.8A2.6 2.6 0 017.526 4zM9.62 7.65a.65.65 0 10-1.3 0v1.994a2.157 2.157 0 00.007.156 4.337 4.337 0 00.436 1.615c.226.453.576.924 1.112 1.282.54.36 1.23.578 2.095.578.863 0 1.554-.218 2.095-.578.536-.358.885-.83 1.111-1.282a4.334 4.334 0 00.444-1.771V7.65a.65.65 0 10-1.3 0v1.986l-.005.071a3.038 3.038 0 01-.302 1.127 1.985 1.985 0 01-.67.781c-.303.203-.737.36-1.373.36-.637 0-1.07-.157-1.374-.36a1.985 1.985 0 01-.67-.781 3.037 3.037 0 01-.306-1.197V7.65z" fill="#717681"/></svg>