<svg viewBox="0 0 24 24" fill="none" xmlns="http://www.w3.org/2000/svg"><path d="M2.717 10.24a1.3 1.3 0 01-.016-2.304l7.892-4.19a3 3 0 012.813 0l7.893 4.19c.38.201.603.544.67.911.02.064.03.131.03.201l.029 6.299a.65.65 0 11-1.3 0l-.022-4.81-7.338 3.761a3 3 0 01-2.737 0l-7.914-4.057z" fill="#717681"/><path d="M5.33 13.532a.3.3 0 01.437-.267l4.271 2.19a4.3 4.3 0 003.924 0l4.23-2.17a.3.3 0 01.438.268v2.313c0 .904-.4 1.761-1.094 2.341a8.659 8.659 0 01-11.112 0 3.053 3.053 0 01-1.094-2.341v-2.334z" fill="#717681"/></svg>