<svg viewBox="0 0 24 24" fill="none" xmlns="http://www.w3.org/2000/svg"><path d="M12 13.796a.65.65 0 00.65-.65V8a.65.65 0 10-1.3 0v5.146c0 .36.291.65.65.65zM12 16.65a.75.75 0 100-1.5.75.75 0 000 1.5z" fill="#717681"/><path fill-rule="evenodd" clip-rule="evenodd" d="M4 6.015a1.3 1.3 0 01.985-1.261l6.287-1.572a3 3 0 011.456 0l6.287 1.572A1.3 1.3 0 0120 6.015v5.23a9 9 0 01-4.23 7.632l-3.081 1.926a1.3 1.3 0 01-1.378 0L8.23 18.877A9 9 0 014 11.245v-5.23zm14.7 0v5.23a7.7 7.7 0 01-3.619 6.53L12 19.701l-3.081-1.926a7.7 7.7 0 01-3.619-6.53v-5.23l6.288-1.572a1.7 1.7 0 01.824 0L18.7 6.015z" fill="#717681"/></svg>